<svg xmlns="http://www.w3.org/2000/svg" viewBox="0 0 24 24">
    <path id="rect" d="M0 0h24v24H0z" />
    <path xmlns="http://www.w3.org/2000/svg"
        d="M4.65 19.29V5.71h3.42q1.06 0 1.59.42.52.41.69 1.21.16.81.16 1.96 0 1.2-.24 1.88-.24.69-.99.92.35.06.59.29.24.22.39.66.14.44.21 1.12.06.68.06 1.67v.43q0 .36.01.84 0 .48.01.96t.02.82q.02.34.04.4H8.54q-.02-.04-.03-.4-.01-.36-.02-.91-.02-.56-.02-1.2V14.42q0-.61-.09-.92-.09-.32-.33-.44-.23-.12-.67-.15l-.66-.03v6.41Zm2.07-8.02h.83q.38 0 .57-.17.2-.17.27-.62.08-.46.08-1.31v-.09q0-.72-.07-1.1-.07-.39-.29-.54-.22-.14-.68-.14h-.71Zm6.33 8.02V5.71h2.07v5.49h1.85V5.71h2.07v13.58h-2.07v-6.31h-1.85v6.31Z"
        fill="#27e" />
    <style>#rect{fill:#fff}@media (prefers-color-scheme:dark){#rect{fill:#000}}</style>
</svg>